name analog
datacolumns 19
datarows 32
range 0.0 0.0155
endheader
time	ground_force_vx	ground_force_vy	ground_force_vz	ground_force_px	ground_force_py	ground_force_pz	l_ground_force_vx	l_ground_force_vy	l_ground_force_vz	l_ground_force_px	l_ground_force_py	l_ground_force_pz	ground_torque_x	ground_torque_y	ground_torque_z	l_ground_torque_x	l_ground_torque_y	l_ground_torque_z
0.0	-0.0	-0.0	-0.0	1.212356686592102	44.31608963012695	-390.34521484375	-3.61647891998291	-45.90913009643555	-391.6763610839844	-0.0	-0.0	-0.0	-0.0	-0.0	-0.0	93643.1796875	166.4634552001953	-4796.23876953125
0.0005	-0.0	-0.0	-0.0	1.1962517499923706	44.45783233642578	-393.37017822265625	-3.866891622543335	-46.05182647705078	-390.2799072265625	-0.0	-0.0	-0.0	-0.0	-0.0	-0.0	93584.09375	-111.74510192871094	-4748.52734375
0.001	-0.0	-0.0	-0.0	0.8028945922851562	44.510589599609375	-392.6639709472656	-3.741947650909424	-45.752685546875	-389.9389953613281	-0.0	-0.0	-0.0	-0.0	-0.0	-0.0	93462.3203125	229.25933837890625	-4790.8818359375
0.0015	-0.0	-0.0	-0.0	1.0159400701522827	44.8671875	-393.3053894042969	-3.832693338394165	-45.89117813110352	-391.1135559082031	-0.0	-0.0	-0.0	-0.0	-0.0	-0.0	93655.3515625	213.93780517578125	-4772.75341796875
0.002	-0.0	-0.0	-0.0	1.1597366333007812	44.43979263305664	-391.8922119140625	-3.4597206115722656	-45.87498474121094	-390.4227294921875	-0.0	-0.0	-0.0	-0.0	-0.0	-0.0	93574.484375	442.1257019042969	-4842.71630859375
0.0025	-0.0	-0.0	-0.0	0.8391345143318176	44.83259582519531	-393.7294006347656	-3.546868801116944	-46.139869689941406	-391.4700317382813	-0.0	-0.0	-0.0	-0.0	-0.0	-0.0	93470.140625	252.33981323242188	-4807.74169921875
0.003	-0.0	-0.0	-0.0	0.554553747177124	45.08191680908203	-393.7288208007813	-3.921293020248413	-46.10529708862305	-390.4933471679688	-0.0	-0.0	-0.0	-0.0	-0.0	-0.0	93507.8984375	103.22753143310548	-4896.5537109375
0.0035	-0.0	-0.0	-0.0	0.5713647603988647	44.88669967651367	-391.9624328613281	-3.743839025497437	-46.2447509765625	-390.7714538574219	-0.0	-0.0	-0.0	-0.0	-0.0	-0.0	93845.9453125	334.825927734375	-4831.6044921875
0.004	-0.0	-0.0	-0.0	0.8028945922851562	45.02885437011719	-391.4693908691406	-3.904306173324585	-45.85682678222656	-389.7904357910156	-0.0	-0.0	-0.0	-0.0	-0.0	-0.0	93427.75	523.009521484375	-4962.3173828125
0.0045000000000000005	-0.0	-0.0	-0.0	0.3748174905776977	44.70821380615234	-392.5226135253906	-4.0627851486206055	-45.94511032104492	-389.7975463867188	-0.0	-0.0	-0.0	-0.0	-0.0	-0.0	93353.9765625	189.25865173339844	-4962.7470703125
0.005	-0.0	-0.0	-0.0	0.4819543063640594	44.77878952026367	-394.0066833496094	-4.612238883972168	-45.55762100219727	-391.8185119628906	-0.0	-0.0	-0.0	-0.0	-0.0	-0.0	93532.0	588.520751953125	-4986.68994140625
0.0055	-0.0	-0.0	-0.0	0.6599445343017578	45.34877014160156	-394.8537902832031	-4.205104827880859	-46.05060958862305	-391.8865356445313	-0.0	-0.0	-0.0	-0.0	-0.0	-0.0	93360.8046875	704.1336059570312	-4986.48779296875
0.006	-0.0	-0.0	-0.0	0.3033824861049652	44.921722412109375	-393.3016052246094	-4.257770538330078	-45.89215850830078	-390.0037231445313	-0.0	-0.0	-0.0	-0.0	-0.0	-0.0	93628.09375	317.32196044921875	-4986.33154296875
0.006500000000000001	-0.0	-0.0	-0.0	-0.0713372752070427	45.33171463012695	-393.9370422363281	-4.169406890869141	-45.78604507446289	-391.3989868164063	-0.0	-0.0	-0.0	-0.0	-0.0	-0.0	93636.6640625	485.4359436035156	-4885.51318359375
0.007	-0.0	-0.0	-0.0	0.1248296946287155	45.59917831420898	-395.7032165527344	-4.045204162597656	-46.03322982788086	-392.6559143066406	-0.0	-0.0	-0.0	-0.0	-0.0	-0.0	93598.2890625	515.9462890625	-5045.587890625
0.0075	-0.0	-0.0	-0.0	0.2850523889064789	45.438751220703125	-396.1271667480469	-4.240408897399902	-46.015602111816406	-392.0979309082031	-0.0	-0.0	-0.0	-0.0	-0.0	-0.0	93834.5	551.5703735351562	-4885.583984375
0.008	-0.0	-0.0	-0.0	0.6781958341598511	45.5633659362793	-396.833740234375	-3.849925756454468	-45.87416458129883	-394.1225891113281	-0.0	-0.0	-0.0	-0.0	-0.0	-0.0	93907.6953125	492.1333312988281	-4861.45361328125
0.0085	-0.0	-0.0	-0.0	0.5005286931991577	45.24354553222656	-397.5404052734375	-4.204693794250488	-45.94484329223633	-393.5652465820313	-0.0	-0.0	-0.0	-0.0	-0.0	-0.0	93857.75	507.3581237792969	-4879.56298828125
0.009000000000000001	-0.0	-0.0	-0.0	0.6598110198974609	45.45564270019531	-396.33782958984375	-4.0454840660095215	-45.85648727416992	-393.3553161621094	-0.0	-0.0	-0.0	-0.0	-0.0	-0.0	94090.9453125	458.3826904296875	-5027.97509765625
0.0095	-0.0	-0.0	-0.0	0.55290687084198	45.95504379272461	-397.3973083496094	-4.258922576904297	-45.94478225708008	-392.8647766113281	-0.0	-0.0	-0.0	-0.0	-0.0	-0.0	93645.8828125	585.4116821289062	-4968.59375
0.01	-0.0	-0.0	-0.0	0.5176569819450378	45.84820556640625	-397.8944091796875	-3.974441528320313	-45.53807067871094	-393.493896484375	-0.0	-0.0	-0.0	-0.0	-0.0	-0.0	93992.984375	520.072021484375	-5022.08154296875
0.0105	-0.0	-0.0	-0.0	0.2500631213188171	45.68742370605469	-398.0392150878906	-4.293129920959473	-46.06906127929688	-392.1661987304688	-0.0	-0.0	-0.0	-0.0	-0.0	-0.0	94141.09375	514.3659057617188	-4998.7080078125
0.011	-0.0	-0.0	-0.0	0.6069409847259521	45.84806060791016	-398.380859375	-4.294416427612305	-45.840309143066406	-392.23480224609375	-0.0	-0.0	-0.0	-0.0	-0.0	-0.0	94129.4609375	269.3700256347656	-5098.9326171875
0.0115	-0.0	-0.0	-0.0	0.2467337548732757	45.917945861816406	-397.4727478027344	-4.151966094970703	-45.484169006347656	-391.9659118652344	-0.0	-0.0	-0.0	-0.0	-0.0	-0.0	93805.546875	685.3723754882812	-5074.888671875
0.012	-0.0	-0.0	-0.0	0.2869825065135956	45.76068115234375	-397.9571838378906	-4.167712688446045	-45.48567199707031	-390.9061584472656	-0.0	-0.0	-0.0	-0.0	-0.0	-0.0	93434.734375	415.2076721191406	-5039.37890625
0.0125	-0.0	-0.0	-0.0	0.5178358554840088	45.91957092285156	-396.8970642089844	-4.3660759925842285	-45.30902862548828	-389.8582458496094	-0.0	-0.0	-0.0	-0.0	-0.0	-0.0	93462.9921875	591.0619506835938	-5051.064453125
0.013000000000000001	-0.0	-0.0	-0.0	0.8747057914733887	45.90216064453125	-396.7676086425781	-4.20408296585083	-45.43388366699219	-392.105224609375	-0.0	-0.0	-0.0	-0.0	-0.0	-0.0	93353.796875	436.1546020507813	-4867.16162109375
0.0135	-0.0	-0.0	-0.0	0.8945074081420898	46.24613571166992	-396.4836120605469	-3.9573841094970703	-45.30902862548828	-389.85748291015625	-0.0	-0.0	-0.0	-0.0	-0.0	-0.0	93464.4765625	542.7814331054688	-5010.18994140625
0.014	-0.0	-0.0	-0.0	0.9094290137290956	45.61745834350586	-395.2769470214844	-3.849090099334717	-44.97053909301758	-389.7985534667969	-0.0	-0.0	-0.0	-0.0	-0.0	-0.0	93126.7578125	408.1497802734375	-4914.49951171875
0.0145	-0.0	-0.0	-0.0	0.5871513485908508	46.24412536621094	-394.6389770507813	-3.600137710571289	-45.39734649658203	-389.7210388183594	-0.0	-0.0	-0.0	-0.0	-0.0	-0.0	93311.6875	575.3790283203125	-4926.79541015625
0.015	-0.0	-0.0	-0.0	0.6589903831481934	45.953887939453125	-394.0237426757813	-3.923193454742432	-45.76775741577149	-388.32427978515625	-0.0	-0.0	-0.0	-0.0	-0.0	-0.0	93160.8515625	440.86529541015625	-4927.14404296875
0.0155	-0.0	-0.0	-0.0	0.4429455101490021	45.54563903808594	-395.1401977539063	-3.602821111679077	-45.69937896728516	-388.1776428222656	-0.0	-0.0	-0.0	-0.0	-0.0	-0.0	92890.9296875	376.0070495605469	-4879.072265625
